<svg xmlns="http://www.w3.org/2000/svg" width="416" height="269.3" version="1.0" viewBox="0 0 312 202" fill="#f64f00"><path d="m216 1 1 1V1l-1-1v1zm27 0 2 1h2l-2-2-2 1zM40 2c-2 1-1 3 3 4 5 3 7 2 9-1 1-2 1-2-1-2-6-2-11-2-11-1zm9 4h-5c-1-2-1-2 1-2 2-1 4 1 4 2zm57-4-1 2 4-2h-3zm127 0c-2 0-1 2 2 3s5 0 2-2c-1-2-2-2-4-1zm-91 1 1 1h1l-1-2-1 1zM54 4l1 1 1-1-2-1v1zm138 0v1l2-1-1-1-2 1zm-83 1 1 1V5l-1-1v1zm70 0h2l-2-1v1zM95 8c0 1 0 2-1 1l-1 1 4 1c4 0 4-1 1-3-2-3-3-2-3 0zm135 0 2 1-2-3v2zm55-1 3 1 6 3 2 1c2-3-8-7-11-5zM140 9l-2 3 1 2h1l2 1 3 2v1l-5 1h-4c0 2 3 3 6 3s4 0 4 2l-1 2-1 3c0 2 0 2 2 1l3-3c0-2 1-2 3-2 2 1 3 1 3-3 0-3-1-3-3-4-4-1-6-2-6-5 1-5-3-8-6-4zm99-1 1 1v2l2 1c2 0 3-1 1-3s-4-3-4-1zM88 9l2 1V9h-2zm-74 1c-2 2-3 6-2 6v-1h1c2 1 6 0 6-2l-3-4-2 1zm100 1c-1 3 0 4 4 5s4 0 2-3c-3-4-6-4-6-2zm-45 0-1 3c0 2 3 1 3-1h1c0 2 2 3 2 1 2-3-2-5-5-3zm9 1c-1 2-1 4 2 4l1-2c-1-3-1-3-3-2zm187 0 2 1 1-1-2-1-1 1zm-40 2c-1 1 1 3 2 1v-3l-2 2zm6 0v3c1 1 0 4-1 5l-1 2c1 1 7-4 7-7s-2-4-5-3zm47 0v3l-2 4c-3 2-2 5 1 5 2 0 4-4 3-5l2-4 1-3c-1-2-4-1-5 0zM33 15l2 1c3 0 3 0 2-1h-4zm134 2 3 1-4-3 1 2zm81 0v1h7c-1-2-5-2-7-1zm8 0 2 3 4 3 2-2v-2c1-2 0-2-2-2h-6zM18 18h2l-2-1v1zm167 0c-1 1 1 6 4 7h7c0-4-10-10-11-7zm53 0v1c1 1 3 0 3-1h-3zM94 19c-1 2-1 3 1 5 1 1 4 0 4-3 0-2-3-3-5-2zm-8 2v1l1-1v-1l-2 1zm-6 1c-1 1 1 3 3 3s2 0 1-2-3-3-4-1zm-15 1 2 2c2 0 2-2 0-3l-2 1zm50 0v7c2 4 2 5 7 6 4 1 5 2 6 4l1 3 1-2 2-3h-1l-2-1c1 0-4-9-7-12s-5-4-7-2zm42 0 2 2 1-1-2-2-1 1zm8 1 2 2c4 2 4-1 0-3-2-1-2-1-2 1zm36 0h1l1-1h-1l-1 1z"/><path d="m141 25 1 1 1-1-1-1-1 1zm34 1c-2 3-2 4 2 4 5 0 6-3 2-5-1-1-2-1-4 1zM0 29l1 5 2 2c2 0 2 0 2-3l-3-4-2-2v2zm25 1c0 3 5 6 8 6l5-2c2-1 2-1 0-3l-6-1h-4c-1-2-3-1-3 0zm136 0v2c2 2 5 1 4-1s-3-3-4-1zm62 1c-2 0-1 2 1 2l2-2h-3zM44 32l1 1 2-1c1-1 0-1-1-1l-2 1zm19 0 1 3 2 2 3-2 1-3h-7zm168 1c1 2 3 2 3 1l-2-2-1 1zM8 34c-1 1 4 9 6 9s1-4-2-6l-2-2-2-1zm69-1c0 1 3 2 4 1l-2-1h-2zm-27 6c-1 0-1 1 1 3 1 1 1 1 1-1 0-3 0-3-2-2zm230 0c-1 1 2 8 3 8l2-2c1-2 1-3-1-5-3-2-4-3-4-1zm27 0v1c2 1 1 3-1 3l-1 1 1 1c2 0 6-3 6-4 0-2-3-3-5-2zm-202 1 2 2c3 1 3 1 3 4-1 3 0 4 5 5 2 1 3 0 4-2v-5c-1-2-3-3-8-4l-5-1-1 1zm44 0c-3 1-4 3-1 3l2 2h3c2-2 2-5 0-6l-4 1zm-30 1c-1 1 1 3 3 3s3-1 1-3h-4zm52 0 1 1 2-1-1-1-2 1zm34 0 1 1v-1l-1-1v1zm42 1-2 1c1-1-1-3-2-2s4 6 5 6 3-1 3-3c2-5 1-5-4-2zM78 42l-2 1 2 3c2 4 8 8 9 6 2-2 2-8 0-10h-9zm-16 4c0 3 1 4 3 3v-1c-2-1-2-1-1-2v-2c-1-2-2-1-2 2zm200-2v4c1 3 5 5 6 4 1 0 1-1-1-2l-2-3c0-2 0-2 3-1 3 2 4 0 2-2h-8zm25 0c-1 3-1 4 1 4s3-1 1-3l-2-1zM44 47l-4 1h-5c-1 1-2 2-2 5s0 3 3 3l5-3 6-3c5-2 5-5 2-5l-5 2zM7 48l2 1 1-1-2-2c-2 0-2 0-1 2zm94 1-1 3c1 1 2-1 2-3h-1zm90 0v10l1-1 1-1c3 0 4-3 4-6-1-3-3-4-6-2zm-16 1h1l1-1h-1l-1 1zm42 1c-3 2-2 4 2 4 3 0 6-3 4-4-1-2-4-1-6 0zm75 0c-1 2-2 2-4 1-3-1-5-1-5 2-1 3 0 3 2 3l7 3c3 2 5 3 6 2 2-2 1-7-1-10-1-2-3-3-5-1zM73 52v3h2l1-2c-1-2-3-2-3-1zm187 2 1 2v-3c-1-1-1-1-1 1zm51-1-1 2c1 1 2-1 2-2h-1zM65 54l2 2 1-1-2-2-1 1zm137 0 3 1c2 0 2 0 1-1h-4zM93 55v2c0 2 0 2-2 1-2-2-6-2-9 0h8l-3 1-4 4-3 1v1c2 1 6 1 8-1 2-1 2-1 5 1l4 1-1-1-1-1 2-1c2 0 4-3 2-4l-1-2c1-2-2-3-5-2zm90 0 2 1h1l-1-1h-2zm47 0 2 1 2-1-2-1-2 1zm-83 2c0 2-1 4-3 5l-2 1 2 4c3 6 7 4 5-2-1-2-1-2 0 0l2 2 2-2c3-4 3-5 1-8-3-3-6-3-7 0zM6 59l1 1v-1l-1-1v1zm-5 2c-1 2 2 5 4 5 1 0 2-2 1-4s-5-2-5-1zm277 1c-2 1 0 4 2 4l2-2c0-3-2-3-4-2zM16 66h2c2 0 1-1-1-1l-2 1zm212 0 4 1 3-1h-7zm-54 1c-1 1 0 1 2 2 2 0 4 0 3-2h-5zM71 68l2 2c1 0 2-1 1-2 0-1-3-2-3 0zm227 0c-1 2 1 5 2 3l2 1c3 3 2 3 0 5-3 3-5 2-9 0-2-2-3-3-4-2h-4c-2-1-2-1-4 1l-2 1c-1 0-2 9-1 10l6 1c5 1 5 1 5-1s1-3 3-3l6-2 4-1c1 1 4-1 4-2l2-1 3-1c0-2-2-4-4-3v-1c2-1 0-3-4-4-4-2-5-2-5-1zM51 70c-1 2 0 3 3 2 1 0 1-3-1-4l-2 2zm25 0c-1 1-1 2 1 3 2 3 4 2 4-1-1-3-3-4-5-2zm24 0 2 1v-1l-1-1-1 1zm10 0h1l1-1h-1l-1 1zm4 0 4 2v-2h-4zm13 0c-1 2 0 4 3 4s3-1 1-3c-1-2-4-3-4-1zm106 0c-1 2 2 7 4 8 3 1 3 2 3 6 0 6 0 6 5 3 3-1 3-1 2-5 0-5 1-5 5-2 3 3 9 5 11 5 1-1 1-1-1-4l-3-4c-1-2-11-7-12-7l-3 2c-3 1-4 1-7-1l-4-1zm12 6-1 1-2 1c-2 0-2 0-1-1 0-2 2-3 3-1zm15-5c-2 2-2 2-1 4 2 1 5 0 6-3 2-3-3-4-6-1zm-102 0v3c1 0 2 0 3-2 0-2-1-2-3-1zm67 1-1 3 1-1 2 2h3c2-1 1-4-2-5-1-1-2 0-3 1z"/><path d="m286 72 1 1 1-2-1-1-1 2zM3 73h1v-2l-1 2zm191 1c0 2 2 4 4 4 2-1 1-5-2-6-1 0-2 0-2 2zm9-1 1 1v-1l-1-1v1zm-88 1c-1 2 0 3 1 1v-1h-2zm71 1 2 1c3 0 3-2 1-2h-3zm113-1 1 1 1-1-1-1-1 1zM30 76l1 1-2 1 1 1-2 1h-6c-2-1-4 0-3 2 0 1 1 2 3 2l7 2h6c3-2 3-2 2-4l-2-2-1-2c1-2 0-2-3-3-3 0-3 0-1 1zm170 0v2c1 1 3 0 3-2h-3zm65 0 1 1 1-1-2-1v1zM66 77l1 1v-1l-1-1v1zm53 0c-1 2 1 5 3 5l2-2c1-2 0-3-1-3h-4zm45 3 2 1c3 0 3-2 1-2-2-1-3 0-3 1zm-86 2c-1 1-1 1 1 2h6c0-2-4-4-7-2zm148 0 1 1 3-1-2-1-2 1zm-81 3 2 2c3 0 4-1 3-3-2-2-5-1-5 1zm126 0c-2 1-1 2 0 1l2-1h-2zm-140 3c-2 2-2 2-1 5 2 4 5 5 5 3l1-1 1 2c0 1 1 1 2-2 3-3 3-4 0-7s-6-3-8 0zm91-1c-2 2-1 3 3 3l4-1c-1-2-6-3-7-2zM5 91c-3 3-3 4 1 5 2 0 3 1 3 2l3 1 4 2c1 3 3 2 2-1v-7c-1-3-1-4-5-4H8c0-1-2 0-3 2zm72-2 1 2c-1 2-1 2 1 1s2-4-1-4c-2 0-2 0-1 1zm108 0v2c1 1 4 0 4-1-1-2-3-2-4-1zm113 1c-3 2-3 3-3 7l1 5 4-2c3-1 3-2 3-3v-7c1-3-2-2-5 0zm2 8-2 2c-2 0-1-2 1-4 1-2 1-2 2-1s0 2-1 3zM33 90l1 1 1-1-1-1-1 1zm12 0 2 2c4 1 6 1 4-2h-6zm146 0-1 2c1 1 2-1 2-2h-1zm22 0c-1 1 3 3 4 3l-1-1-1-1c0-2-2-2-2-1zm55 1v1l1 1c-1 1 2 5 3 5v-3l-1-3c1-1-2-2-3-1zM98 94l4 3 5-1c1-3-2-5-6-5-3 0-3 0-3 3zm16-1 1 2c2 0 1-2-1-3v1zm57 2h-2l-5 2 6 1c6 0 7-1 6-4 0-1-2-1-5 1zM43 95c2 2 4 2 6 1 1-1 0-2-3-2-4 0-4 0-3 1zm241 1c0 4 2 6 4 5 3 0 2-1 0-4l-3-3-1 2zm-49 0c-3 2-2 4 0 3 3-1 5-2 4-3h-4zm10 2 1 1 3-1c1-2 1-2-1-2s-3 1-3 2zm-24 2c-2 4-3 5 0 5l2 2 1 2 1-5v-3c2-5-1-5-4-1zm7-2c-2 1-1 2 1 2l2-1c-1-2-2-2-3-1zM1 100l-1 3h3l2-2 2-1c2 0 1-1-2-1-2-1-3 0-4 1zm185 0 1 1v-1l-1-1v1zm13 0 4 4c2 1 5-2 3-3l-7-1zm13 0 1 1 1-1-1-1-1 1zm64 0-2 1c-2-1-2-1-1 1h5l1-2h-3zm-105 2-1 2 3-1c2-2 1-3-2-1zm88 0c-2 2-1 7 1 8 3 0 7-3 7-5 0-4-6-5-8-3zm-191 1c-1 1 0 3 1 3v-3h-2zm159 0 1 1v-1l-1-1v1zm54 0 2 1c2 1 2 1 1-1h-3zm-256 2c2 3 4 4 7 2 1-1 1-1-1-1l-4-1c-3-3-4-2-2 0zm127-1c0 2 2 3 3 3l-2-4-1 1zm22 1c-1 2 0 3 2 1l3-1 1-1c-1-2-5-1-6 1zm11-1 1 2 1-1c0-2-1-2-2-1zm49 0c-1 1 2 4 3 4 1-1 0-4-1-4h-2zM5 105l1 1v-1l-1-1v1zm12 1 1 1 1-1-2-1v1zm85 0 1 1v-1l-1-1v1zm-93 1c0 2 3 4 4 4 3-1 2-3-1-4H9zm31 0 1 1 1-1-1-1-1 1zm-18 1-1 2c0 2 1 2 3 2s3 0 2 1c0 2 2 3 2 0l-2-4c-2-2-3-3-4-1zm70 0c-1 2 2 4 3 2 1-1 1-3-1-3l-2 1zm52 1c0 2 1 3 4 3 2 0 3-1 0-3-2-2-3-2-4 0zm68-1 3 2 3-1-3-2-3 1zm-165 4c-3 4-4 5-3 6 1 2 2 2 6 2l7 1c3 0 3 0 4-2l-1-7c-2-3-2-4-5-4s-4 1-8 4zm226-2 1 1 1-2-1-1-1 2zm13 0 2 1c2-1 2-3 0-3l-2 2zm8-1 2 1 1-1-2-1-1 1zm-133 2v1h1v-1h-1zm70 0h1l1-1h-1l-1 1zm-163 1 1 1 2-1-1-1-2 1zm55 1 1 4v2l2 2c3 4 6 4 7 1 1-2 1-3-2-5l-3-4c0-2-4-1-5 0zm115 3c-1 1-1 3 1 3 2 1 3 0 2-2 0-1-2-2-3-1zm51 0 1 2v3c0 2 1 3 3 2 3-1 1-8-3-8l-1 1zm-196 4c-1 2-1 6 1 6s8-6 7-6l-3-2c-3-1-3-1-5 1zm100-2-1 2c-3 2-2 2 2 4 5 1 7 0 7-2l-1-2h-2l-3-2h-2zm73 1 1 2 1-1-1-2-1 1zm14 0v3l2-2c0-2 0-2-2-1zm-29 2c0 2 0 3 2 3s2 0 1-1l-2-3c-1-1-1 0-1 1zm-110 0h3l-2-1c-2 0-2 0-1 1zm5 2 2 2-1-2-2-2 1 2zm64-1c-3 1-2 3 1 3 4-1 5-1 4-3h-5zm94 1 1 1 1-1-1-1-1 1zm-168 2c-1 3 0 4 2 3 2 0 2-2 1-4-2-2-3-1-3 1zm-55-1c-1 3-1 5 1 5l1-1 2-1c2 0 1-2-1-2l-3-1zm-10 2c-1 2 1 3 4 3s5-1 3-3h-7zm137 1-4 1c-2 0-2 0 0 1 2 2 5 3 7 2s2-1 0-3-3-3-4-1zm6 2c0 3 0 6 3 6 2 0 2-1 1-5v-2l2-1-2-1c-2 0-3 1-4 3zm10-2v1l1-1v-1l-2 1zm-157 1 1 1v-1l-1-1v1zm85 2 1 3c1 1 1 1 2-1 2-2 2-3 1-3-2-2-4-1-4 1zm103-1 1 7c1 1 5 0 5-1l-5-7-1 1zm16 2c-3 2-3 3 3 3 5 0 5 0 3-2-2-3-3-4-6-1zm-35 2c-2 3-2 4 0 4s2 0 1-2l1-3 1-1c0-2-1-1-3 2zm-104 0c3 3 3 4-1 4-2 0-2 0-1 2 3 1 5 0 5-3 0-2-3-5-4-5l1 2zm66 0 1 2h2v-1l-1-1v-1l-2 1zm-181 2c-3 2-3 3-2 5 1 5 4 6 7 2 3-3 3-3 2-4l-3-1c-2 0-2 0-1-2 3-3 0-3-4 0zm1 4-1 2-1-1 1-2 1 1zm95-3c0 2 1 3 3 4 3 2 4-1 1-5l-3-2-1 3zm49-2v1l1-1v-1l-2 1z"/><path d="m24 135 1 1 1-1-2-1-1 1zm48 1c0 1 2 3 4 3l2 1c0 2 4 5 7 5 2 0 1-4-1-5l-4-3c-1-2-8-3-8-1zm133 1h1v-2l-1 2zm-61 0 2 3h3l1-2c-1-2-6-2-6-1zm23 0c-1 1 0 2 1 3 2 3 4 1 2-2-1-2-1-2-3-1zm-60 1 3 1v-1h-3zm84 0 2 1 1-1-1-1-2 1zm-144 1c-3 3-2 5 3 5l3-1c0-2 0-2 2-1 3 1 3 1 3-1s0-2-2-2h-9zm225 0 1 1v-1l-1-1-1 1zM4 141l-2 1-2 2c0 2 0 2 4 0l3-3c-1-2-3-2-3 0zm110 1 2 3 1 3c0 2 4 5 6 5s1-7-1-9h-3c-1 1-2 1-2-1-1-2-3-3-3-1zm143 0c-2 2-1 7 1 8l4-2c2-3 2-3 1-5s-4-3-6-1zm-229 5c1 4 3 5 4 4s-2-7-3-7l-1 3zm201-2v1l2-1-1-1-2 1zm62 0c-1 1 0 4 2 4l1-1-1-1-1-1c1-2 0-3-1-1zm-270 2v2l1 2 2 3h2v-3l-3-3c0-3-1-4-2-1zm31 0c-1 1-1 2 1 3l4 2 3-4c-1-2-7-3-8-1zm184-1 1 1 1-1-1-1-1 1zM7 147c-1 1 1 4 3 4 2 1 4-1 2-2l-1-2c0-1-3-2-4 0zm33 1-1 5 1-1 2-3 1-2-3 1zm155 1c0 1 0 2 1 1v-2c-1-1-1 0-1 1zm46 0v5l6-6c-1-2-5-1-6 1zm-129 1c-1 1 0 5 1 5l2-5-2-1-1 1zm53 0 1 1 1-1-1-1-1 1zm14 1c-1 1-2 2-3 1-3-1-2 4 1 7l5 2c1 0 6-6 6-8 0-1-4-4-6-4l-3 2zm9-1 1 1 1-1-1-1-1 1zm-111 1 2 1 1-1-2-1c-1 0-2 0-1 1zm77 0c-1 1-1 1 1 2l2 2c0 2 0 2 1 1 2-2-1-7-4-5zm-96 2c-1 1-1 1 1 2 3 2 6 1 6-1-1-2-6-3-7-1zm164-2v6l2 2c0 2 2 3 3 4h5c1-2 1-2-2-3s-4-2-1-4v-4h-2c-2 2-2 2-3 0l-2-1zm-172 3 1 1 1-1-2-1v1zm240 0 2 3c1 1 1 1 1-1 0-3-3-4-3-2zm-263 1 4 4c2-2 1-3-1-4h-3zm124 0 1 1 1-1-1-1-1 1zm54 0c-3 1-3 4 1 4 2 1 2 2 2 3-1 3 1 4 4 3s3-1 2-4l-6-7-3 1zm77 0 1 1v-1l-1-1-1 1zm-118 3 3 1v-1h-3zm25 0c-1 2 0 3 2 3 3 0 3-2 0-3h-3zm80 0c-1 2 0 3 3 3 2 0 2 0 1 1-3 0-2 3 0 3 3 1 4 0 4-2s-1-3-3-4c-3-2-3-2-5-1zm-99 1h2l-2-1v1zm-159 2c0 2 1 4 2 2v-2h-2zm75 0-4 1c-2-1-3-1-3 1s5 3 9 2c3-1 4-2 3-3-1-2-3-3-5-1zm87 1 2 1-2-3v2zm-55 3c0 2 0 3 2 3l1-2-1-4-1-1-1 4zm43-2c-1 1-1 2 1 3 2 3 3 2 3-2-1-3-2-4-4-1zm129 0v5c2-1 3-5 2-5h-2zm-273 2 4 4c2 1 4 2 5 1 4-2 1-6-5-6-3-1-4-1-4 1zm225 1v2l1-2v-3l-1 3zm68-2 1 2c2 0 1-2-1-3v1zm-162 1v2c1 2 8 1 8-1s-7-3-8-1zM6 166l2 1 1-1-1-1-2 1zm181 3h1l1-1h-1l-1 1zm35 1v1l2-1v-2l-2 2zm-78 2 2 2 1-1-2-2-1 1zm48 0c1 2 5 3 5 1l-1-1-3-1-1 1zm65 0c-2 0-1 2 1 2l2-1c0-1-1-2-3-1zm-4 1-1 2-2 2c0 2 0 2 3 1 2-1 3-4 1-5h-1zm-166 1v1c0 1 2 1 2-1h-2zm184 1c-1 2 0 3 2 3s3-1 2-3h-5zm24 0 1 1v-1l-1-1-1 1zm-5 1 2 1 1-1-2-1-1 1zm-164 3c-1 1-1 1 1 1l2-1c0-2-2-2-3-1zm98 0 1 1h2c-1-2-3-2-3-1zm-156 1c-1 2-1 4 1 4l1 1 1 1c2 1 2 0 2-3 0-4-3-5-5-3zm54 0 1 1 1-1-1-1-1 1zm82 0 2 1v-1l-1-1-1 1zm-48 1 4 2 6 2c4 1 2-2-2-4h-8zm39 1-4 1c-6-2-10 2-5 4 2 1 3 2 3 4s0 2 2 2c2 1 2 0 2-1l1-6c0-3 0-3 3-2 4 0 6-2 4-3s-5-1-6 1zm-180 2h1v-2l-1 2zm232-1-2 1c0 2 4 5 6 5 2-1 3-4 1-6h-5zm23 0 2 3c2 2 3 1 1-2-1-2-3-3-3-1zm7 2 1 1v-1l-1-2v2zm-199 1c1 2 5 4 6 3s0-2-1-3c-3-2-5-3-5 0zm138-1c-1 2-1 4 1 4 2 1 5-1 4-3s-3-3-5-1zm93 0c-1 2 0 3 1 2v-3l-1 1zm-195 2v3c1 3 6 4 7 1 1-2-6-7-8-4zm121 0c-3 3 1 6 5 3l2-2c-1-2-5-2-7-1zm-143 4-2 4c-1 0-1 1 1 2 2 3 3 2 4 0l2-2c1 1 4-1 4-3l-7-4-2 3zm203-1-1 3c1 2 0 2-1 2-4 0-4 1-2 4 2 1 2 1 5-2 4-4 5-6 3-8h-4zM9 190v1l1-1v-1l-2 1zm154 0v4l3-4h-3zm11 0c0 1 3 2 4 1l-2-1h-2zm27 0c1 2 3 2 3 1l-2-2-1 1zm-183 1c0 1 2 3 5 4 3 2 4-2 0-3-3-2-4-2-5-1zm16 1c0 2 1 2 2 2l4-1-1-1c-1 1-2 0-3-1-2-1-2-1-2 1zm112 3h1v-2l-1 2zm34-1v1l1-1v-1l-2 1zm37 0c0 1 1 2 3 1v-1h-3zm45 0 1 2c1 2 4 1 5-1 0-2 0-2-2-2l-4 1zm-25 3h1l1-1h-1l-1 1zm-220 2h1l1-1h-1l-1 1zm235 0 1 1v-1l-1-1v1zm45 2c-1 1 0 1 2 1s2 0 1-1c-2-2-3-2-3 0zm-175 0 2 1 1-1-1-1-2 1z"/></svg>
